
            <svg xmlns="http://www.w3.org/2000/svg" xmlns:cc="http://creativecommons.org/ns#" xmlns:rdf="http://www.w3.org/1999/02/22-rdf-syntax-ns#" version="1.1" width="707.0626220703125" height="605">
              <defs>
                <style type="text/css">svg {
            background-color: #fff; }
          
          .root text,
          .root tspan {
            font: 12px Arial; }
          
          .root path {
            fill-opacity: 0;
            stroke-width: 2px;
            stroke: #000; }
          
          .root circle {
            fill: #6b6659;
            stroke-width: 2px;
            stroke: #000; }
          
          .anchor text, .any-character text {
            fill: #fff; }
          
          .anchor rect, .any-character rect {
            fill: #6b6659; }
          
          .escape text, .charset-escape text, .literal text {
            fill: #000; }
          
          .escape rect, .charset-escape rect {
            fill: #bada55; }
          
          .literal rect {
            fill: #dae9e5; }
          
          .charset .charset-box {
            fill: #cbcbba; }
          
          .subexp .subexp-label tspan,
          .charset .charset-label tspan,
          .match-fragment .repeat-label tspan {
            font-size: 10px; }
          
          .repeat-label {
            cursor: help; }
          
          .subexp .subexp-label tspan,
          .charset .charset-label tspan {
            dominant-baseline: text-after-edge; }
          
          .subexp .subexp-box {
            stroke: #908c83;
            stroke-dasharray: 6,2;
            stroke-width: 2px;
            fill-opacity: 0; }
          
          .quote {
            fill: #908c83; }
          </style>
              </defs>
              <metadata>
                <rdf:rdf>
                  <cc:license rdf:about="http://creativecommons.org/licenses/by/3.0/">
                    <cc:permits rdf:resource="http://creativecommons.org/ns#Reproduction"></cc:permits>
                    <cc:permits rdf:resource="http://creativecommons.org/ns#Distribution"></cc:permits>
                    <cc:requires rdf:resource="http://creativecommons.org/ns#Notice"></cc:requires>
                    <cc:requires rdf:resource="http://creativecommons.org/ns#Attribution"></cc:requires>
                    <cc:permits rdf:resource="http://creativecommons.org/ns#DerivativeWorks"></cc:permits>
                  </cc:license>
                </rdf:rdf>
              </metadata>
            <desc>Created with Snap</desc><g transform="matrix(1,0,0,1,15,9.8906)" class="root"><g transform="matrix(1,0,0,1,10,0)" class="regexp"><path d="M10,269.32820000000004q0,-10 10,-10M647.0626220703125,269.32820000000004q0,-10 -10,-10M10,538.6094q0,10 10,10M647.0626220703125,538.6094q0,10 -10,10M0,292.6093997955322q10,0 10,-10V269.32820000000004M657.0626220703125,292.6093997955322q-10,0 -10,-10V269.32820000000004M0,292.6093997955322q10,0 10,10V538.6094M657.0626220703125,292.6093997955322q-10,0 -10,10V538.6094"></path><g transform="matrix(1,0,0,1,20,0)" class="regexp-matches"><path d="M0,259.32820000000004h0M567.0625805175781,259.32820000000004H617.0626220703125M0,548.6094h220.1563M406.90635,548.6094H617.0626220703125"></path><g transform="matrix(1,0,0,1,0,0)" class="match"><path d="M70.703125,259.32820000000004H100.7031"></path><g transform="matrix(1,0,0,1,0,247.3282)" class="match-fragment"><g class="label anchor"><rect width="70.703125" height="24"></rect><text x="0" y="0" transform="matrix(1,0,0,1,5,17)"><tspan>Start of line</tspan></text></g></g><g transform="matrix(1,0,0,1,80.7031,0)" class="match-fragment subexp"><rect rx="3" ry="3" class="subexp-box" transform="matrix(1,0,0,1,0,11.1094)" width="536.3594970703125" height="485"></rect><text x="0" y="0" transform="matrix(1,0,0,1,0,11.1094)" class="subexp-label"><tspan>group #1</tspan></text><g transform="matrix(1,0,0,1,10,21.1094)" class="regexp match"><path d="M321.68756103515625,238.21879979553222H361.6876"></path><g transform="matrix(1,0,0,1,0,0)" class="match-fragment subexp"><rect rx="3" ry="3" class="subexp-box" transform="matrix(1,0,0,1,0,11.1094)" width="331.68756103515625" height="454"></rect><text x="0" y="0" transform="matrix(1,0,0,1,0,11.1094)" class="subexp-label"><tspan>group #2</tspan></text><g transform="matrix(1,0,0,1,10,21.1094)" class="regexp"><path d="M10,72.1094q0,-10 10,-10M301.68756103515625,72.1094q0,-10 -10,-10M10,271.6094q0,10 10,10M301.68756103515625,271.6094q0,10 -10,10M0,217.10939979553223q10,0 10,-10V72.1094M311.68756103515625,217.10939979553223q-10,0 -10,-10V72.1094M0,217.10939979553223q10,0 10,10V271.6094M311.68756103515625,217.10939979553223q-10,0 -10,10V271.6094"></path><g transform="matrix(1,0,0,1,20,0)" class="regexp-matches"><path d="M0,62.1094h10M256.6875805175781,62.1094H271.68756103515625M0,281.6094h86.5M185.1875,281.6094H271.68756103515625"></path><g transform="matrix(1,0,0,1,0,0)" class="match"><path d="M121.34375,62.1094H141.3438M163.3438,62.109399999999994H183.3438"></path><g transform="matrix(1,0,0,1,0,0)" class="match-fragment subexp"><rect rx="3" ry="3" class="subexp-box" transform="matrix(1,0,0,1,0,11.1094)" width="131.34375" height="102"></rect><text x="0" y="0" transform="matrix(1,0,0,1,0,11.1094)" class="subexp-label"><tspan>group #3</tspan></text><g transform="matrix(1,0,0,1,10,21.1094)" class="regexp"><path d="M10,22q0,-10 10,-10M101.34375,22q0,-10 -10,-10M0,41c10,0 10,0 20,0M111.34375,41c-10,0 -10,0 -20,0M10,60q0,10 10,10M101.34375,60q0,10 -10,10M0,41q10,0 10,-10V22M111.34375,41q-10,0 -10,-10V22M0,41q10,0 10,10V60M111.34375,41q-10,0 -10,10V60"></path><g transform="matrix(1,0,0,1,20,0)" class="regexp-matches"><path d="M0,12h12.6641M58.679725,12H71.34375M0,41h15.6719M55.6719,41H71.34375M0,70h0M71.34375,70H71.34375"></path><g transform="matrix(1,0,0,1,12.6641,0)" class="match match-fragment literal"><g class="label"><rect width="46.015625" height="24" rx="3" ry="3"></rect><text x="0" y="0" transform="matrix(1,0,0,1,5,17)"><tspan class="quote">“</tspan><tspan>issue</tspan><tspan class="quote">”</tspan></text></g></g><g transform="matrix(1,0,0,1,15.6719,29)" class="match match-fragment literal"><g class="label"><rect width="40" height="24" rx="3" ry="3"></rect><text x="0" y="0" transform="matrix(1,0,0,1,5,17)"><tspan class="quote">“</tspan><tspan>task</tspan><tspan class="quote">”</tspan></text></g></g><g transform="matrix(1,0,0,1,0,58)" class="match match-fragment literal"><g class="label"><rect width="71.34375" height="24" rx="3" ry="3"></rect><text x="0" y="0" transform="matrix(1,0,0,1,5,17)"><tspan class="quote">“</tspan><tspan>user-story</tspan><tspan class="quote">”</tspan></text></g></g></g></g></g><g transform="matrix(1,0,0,1,141.3438,50.1094)" class="match-fragment literal"><g class="label"><rect width="22" height="24" rx="3" ry="3"></rect><text x="0" y="0" transform="matrix(1,0,0,1,5,17)"><tspan class="quote">“</tspan><tspan>-</tspan><tspan class="quote">”</tspan></text></g></g><g transform="matrix(1,0,0,1,173.3438,19.6094)" class="match-fragment"><path d="M10,42.5q-10,0 -10,10v21.5q0,10 10,10h73.34378051757812q10,0 10,-10v-21.5q0,-10 -10,-10M93.34378051757812,57.5l5,-5m-5,5l-5,-5"></path><g transform="matrix(1,0,0,1,10,0)" class="charset"><rect rx="3" ry="3" class="charset-box" transform="matrix(1,0,0,1,0,11)" width="73.34377670288086" height="63"></rect><text x="0" y="0" transform="matrix(1,0,0,1,0,11)" class="charset-label"><tspan>One of:</tspan></text><g transform="matrix(1,0,0,1,5,16)"><g transform="matrix(1,0,0,1,0.3359,0)" class="charset-range"><text x="0" y="0" transform="matrix(1,0,0,1,29.6719,16)">-</text><g transform="matrix(1,0,0,1,0,0)" class="literal"><g class="label"><rect width="24.671875" height="24" rx="3" ry="3"></rect><text x="0" y="0" transform="matrix(1,0,0,1,5,17)"><tspan class="quote">“</tspan><tspan>a</tspan><tspan class="quote">”</tspan></text></g></g><g transform="matrix(1,0,0,1,38.6719,0)" class="literal"><g class="label"><rect width="24" height="24" rx="3" ry="3"></rect><text x="0" y="0" transform="matrix(1,0,0,1,5,17)"><tspan class="quote">“</tspan><tspan>z</tspan><tspan class="quote">”</tspan></text></g></g></g><g transform="matrix(1,0,0,1,0,29)" class="charset-range"><text x="0" y="0" transform="matrix(1,0,0,1,29.6719,16)">-</text><g transform="matrix(1,0,0,1,0,0)" class="literal"><g class="label"><rect width="24.671875" height="24" rx="3" ry="3"></rect><text x="0" y="0" transform="matrix(1,0,0,1,5,17)"><tspan class="quote">“</tspan><tspan>0</tspan><tspan class="quote">”</tspan></text></g></g><g transform="matrix(1,0,0,1,38.6719,0)" class="literal"><g class="label"><rect width="24.671875" height="24" rx="3" ry="3"></rect><text x="0" y="0" transform="matrix(1,0,0,1,5,17)"><tspan class="quote">“</tspan><tspan>9</tspan><tspan class="quote">”</tspan></text></g></g></g></g></g></g></g><g transform="matrix(1,0,0,1,76.5,118)" class="match match-fragment subexp"><rect rx="3" ry="3" class="subexp-box" transform="matrix(1,0,0,1,0,11.1094)" width="118.6875" height="305"></rect><text x="0" y="0" transform="matrix(1,0,0,1,0,11.1094)" class="subexp-label"><tspan>group #4</tspan></text><g transform="matrix(1,0,0,1,10,21.1094)" class="regexp"><path d="M10,22q0,-10 10,-10M88.6875,22q0,-10 -10,-10M10,51q0,-10 10,-10M88.6875,51q0,-10 -10,-10M10,80q0,-10 10,-10M88.6875,80q0,-10 -10,-10M10,109q0,-10 10,-10M88.6875,109q0,-10 -10,-10M0,142.5c10,0 10,-14.5 20,-14.5M98.6875,142.5c-10,0 -10,-14.5 -20,-14.5M0,142.5c10,0 10,14.5 20,14.5M98.6875,142.5c-10,0 -10,14.5 -20,14.5M10,176q0,10 10,10M88.6875,176q0,10 -10,10M10,205q0,10 10,10M88.6875,205q0,10 -10,10M10,234q0,10 10,10M88.6875,234q0,10 -10,10M10,263q0,10 10,10M88.6875,263q0,10 -10,10M0,142.5q10,0 10,-10V22M98.6875,142.5q-10,0 -10,-10V22M0,142.5q10,0 10,10V263M98.6875,142.5q-10,0 -10,10V263"></path><g transform="matrix(1,0,0,1,20,0)" class="regexp-matches"><path d="M0,12h10.3359M48.351525,12H58.6875M0,41h1.6641M57.023475,41H58.6875M0,70h4.3359M54.351525,70H58.6875M0,99h6M52.6875,99H58.6875M0,128h9.3359M49.351525,128H58.6875M0,157h5.3359M53.351525,157H58.6875M0,186h7.6719M51.01565,186H58.6875M0,215h0M58.6875,215H58.6875M0,244h7.6719M51.01565,244H58.6875M0,273h0.6641M58.023475,273H58.6875"></path><g transform="matrix(1,0,0,1,10.3359,0)" class="match match-fragment literal"><g class="label"><rect width="38.015625" height="24" rx="3" ry="3"></rect><text x="0" y="0" transform="matrix(1,0,0,1,5,17)"><tspan class="quote">“</tspan><tspan>feat</tspan><tspan class="quote">”</tspan></text></g></g><g transform="matrix(1,0,0,1,1.6641,29)" class="match match-fragment literal"><g class="label"><rect width="55.359375" height="24" rx="3" ry="3"></rect><text x="0" y="0" transform="matrix(1,0,0,1,5,17)"><tspan class="quote">“</tspan><tspan>feature</tspan><tspan class="quote">”</tspan></text></g></g><g transform="matrix(1,0,0,1,4.3359,58)" class="match match-fragment literal"><g class="label"><rect width="50.015625" height="24" rx="3" ry="3"></rect><text x="0" y="0" transform="matrix(1,0,0,1,5,17)"><tspan class="quote">“</tspan><tspan>bugfix</tspan><tspan class="quote">”</tspan></text></g></g><g transform="matrix(1,0,0,1,6,87)" class="match match-fragment literal"><g class="label"><rect width="46.6875" height="24" rx="3" ry="3"></rect><text x="0" y="0" transform="matrix(1,0,0,1,5,17)"><tspan class="quote">“</tspan><tspan>hotfix</tspan><tspan class="quote">”</tspan></text></g></g><g transform="matrix(1,0,0,1,9.3359,116)" class="match match-fragment literal"><g class="label"><rect width="40.015625" height="24" rx="3" ry="3"></rect><text x="0" y="0" transform="matrix(1,0,0,1,5,17)"><tspan class="quote">“</tspan><tspan>junk</tspan><tspan class="quote">”</tspan></text></g></g><g transform="matrix(1,0,0,1,5.3359,145)" class="match match-fragment literal"><g class="label"><rect width="48.015625" height="24" rx="3" ry="3"></rect><text x="0" y="0" transform="matrix(1,0,0,1,5,17)"><tspan class="quote">“</tspan><tspan>chore</tspan><tspan class="quote">”</tspan></text></g></g><g transform="matrix(1,0,0,1,7.6719,174)" class="match match-fragment literal"><g class="label"><rect width="43.34375" height="24" rx="3" ry="3"></rect><text x="0" y="0" transform="matrix(1,0,0,1,5,17)"><tspan class="quote">“</tspan><tspan>docs</tspan><tspan class="quote">”</tspan></text></g></g><g transform="matrix(1,0,0,1,0,203)" class="match match-fragment literal"><g class="label"><rect width="58.6875" height="24" rx="3" ry="3"></rect><text x="0" y="0" transform="matrix(1,0,0,1,5,17)"><tspan class="quote">“</tspan><tspan>refactor</tspan><tspan class="quote">”</tspan></text></g></g><g transform="matrix(1,0,0,1,7.6719,232)" class="match match-fragment literal"><g class="label"><rect width="43.34375" height="24" rx="3" ry="3"></rect><text x="0" y="0" transform="matrix(1,0,0,1,5,17)"><tspan class="quote">“</tspan><tspan>tests</tspan><tspan class="quote">”</tspan></text></g></g><g transform="matrix(1,0,0,1,0.6641,261)" class="match match-fragment literal"><g class="label"><rect width="57.359375" height="24" rx="3" ry="3"></rect><text x="0" y="0" transform="matrix(1,0,0,1,5,17)"><tspan class="quote">“</tspan><tspan>release</tspan><tspan class="quote">”</tspan></text></g></g></g></g></g></g></g></g><g transform="matrix(1,0,0,1,341.6876,160.1094)" class="match-fragment"><path d="M10,78.1094q-10,0 -10,10v55.99999979553223q0,10 10,10h149.671875q10,0 10,-10v-55.99999979553223q0,-10 -10,-10M169.671875,93.1094l5,-5m-5,5l-5,-5"></path><g transform="matrix(1,0,0,1,10,0)" class="subexp"><rect rx="3" ry="3" class="subexp-box" transform="matrix(1,0,0,1,0,11.1094)" width="149.671875" height="133"></rect><text x="0" y="0" transform="matrix(1,0,0,1,0,11.1094)" class="subexp-label"><tspan>group #5</tspan></text><g transform="matrix(1,0,0,1,10,21.1094)" class="regexp match"><path d="M21.328125,57H41.3281"></path><g transform="matrix(1,0,0,1,0,45)" class="match-fragment literal"><g class="label"><rect width="21.328125" height="24" rx="3" ry="3"></rect><text x="0" y="0" transform="matrix(1,0,0,1,5,17)"><tspan class="quote">“</tspan><tspan>/</tspan><tspan class="quote">”</tspan></text></g></g><g transform="matrix(1,0,0,1,31.3281,0)" class="match-fragment"><path d="M10,57q-10,0 -10,10v36q0,10 10,10h73.34378051757812q10,0 10,-10v-36q0,-10 -10,-10M93.34378051757812,72l5,-5m-5,5l-5,-5"></path><g transform="matrix(1,0,0,1,10,0)" class="charset"><rect rx="3" ry="3" class="charset-box" transform="matrix(1,0,0,1,0,11)" width="73.34377670288086" height="92"></rect><text x="0" y="0" transform="matrix(1,0,0,1,0,11)" class="charset-label"><tspan>One of:</tspan></text><g transform="matrix(1,0,0,1,5,16)"><g transform="matrix(1,0,0,1,0.3359,0)" class="charset-range"><text x="0" y="0" transform="matrix(1,0,0,1,29.6719,16)">-</text><g transform="matrix(1,0,0,1,0,0)" class="literal"><g class="label"><rect width="24.671875" height="24" rx="3" ry="3"></rect><text x="0" y="0" transform="matrix(1,0,0,1,5,17)"><tspan class="quote">“</tspan><tspan>a</tspan><tspan class="quote">”</tspan></text></g></g><g transform="matrix(1,0,0,1,38.6719,0)" class="literal"><g class="label"><rect width="24" height="24" rx="3" ry="3"></rect><text x="0" y="0" transform="matrix(1,0,0,1,5,17)"><tspan class="quote">“</tspan><tspan>z</tspan><tspan class="quote">”</tspan></text></g></g></g><g transform="matrix(1,0,0,1,0,29)" class="charset-range"><text x="0" y="0" transform="matrix(1,0,0,1,29.6719,16)">-</text><g transform="matrix(1,0,0,1,0,0)" class="literal"><g class="label"><rect width="24.671875" height="24" rx="3" ry="3"></rect><text x="0" y="0" transform="matrix(1,0,0,1,5,17)"><tspan class="quote">“</tspan><tspan>0</tspan><tspan class="quote">”</tspan></text></g></g><g transform="matrix(1,0,0,1,38.6719,0)" class="literal"><g class="label"><rect width="24.671875" height="24" rx="3" ry="3"></rect><text x="0" y="0" transform="matrix(1,0,0,1,5,17)"><tspan class="quote">“</tspan><tspan>9</tspan><tspan class="quote">”</tspan></text></g></g></g><g transform="matrix(1,0,0,1,20.6719,58)" class="literal"><g class="label"><rect width="22" height="24" rx="3" ry="3"></rect><text x="0" y="0" transform="matrix(1,0,0,1,5,17)"><tspan class="quote">“</tspan><tspan>-</tspan><tspan class="quote">”</tspan></text></g></g></g></g></g></g></g></g></g></g></g><g transform="matrix(1,0,0,1,210.1563,501)" class="match"><path d="M110.03125,47.609399999999994H130.0313"></path><g transform="matrix(1,0,0,1,0,0)" class="match-fragment subexp"><rect rx="3" ry="3" class="subexp-box" transform="matrix(1,0,0,1,0,11.1094)" width="120.03125" height="73"></rect><text x="0" y="0" transform="matrix(1,0,0,1,0,11.1094)" class="subexp-label"><tspan>group #6</tspan></text><g transform="matrix(1,0,0,1,10,21.1094)" class="regexp"><path d="M0,26.5c10,0 10,-14.5 20,-14.5M100.03125,26.5c-10,0 -10,-14.5 -20,-14.5M0,26.5c10,0 10,14.5 20,14.5M100.03125,26.5c-10,0 -10,14.5 -20,14.5"></path><g transform="matrix(1,0,0,1,20,0)" class="regexp-matches"><path d="M0,12h2.6797M57.351575,12H60.03125M0,41h0M60.03125,41H60.03125"></path><g transform="matrix(1,0,0,1,2.6797,0)" class="match match-fragment literal"><g class="label"><rect width="54.671875" height="24" rx="3" ry="3"></rect><text x="0" y="0" transform="matrix(1,0,0,1,5,17)"><tspan class="quote">“</tspan><tspan>master</tspan><tspan class="quote">”</tspan></text></g></g><g transform="matrix(1,0,0,1,0,29)" class="match match-fragment literal"><g class="label"><rect width="60.03125" height="24" rx="3" ry="3"></rect><text x="0" y="0" transform="matrix(1,0,0,1,5,17)"><tspan class="quote">“</tspan><tspan>develop</tspan><tspan class="quote">”</tspan></text></g></g></g></g></g><g transform="matrix(1,0,0,1,130.0313,35.6094)" class="match-fragment"><g class="label anchor"><rect width="66.71875" height="24"></rect><text x="0" y="0" transform="matrix(1,0,0,1,5,17)"><tspan>End of line</tspan></text></g></g></g></g></g><path d="M10,292.6093997955322H0M667.0626220703125,292.6093997955322H677.0626220703125"></path><circle cx="0" cy="292.6093997955322" r="5"></circle><circle cx="677.0626220703125" cy="292.6093997955322" r="5"></circle></g></svg>
          